<svg xmlns="http://www.w3.org/2000/svg" width="260" height="60" viewBox="0 0 260 60">
  <g id="Group_1" data-name="Group 1" transform="translate(77 -307)">
    <path id="Path_1" data-name="Path 1" d="M-49,307A27.871,27.871,0,0,1-21.01,334.739,27.871,27.871,0,0,1-49,362.478a27.871,27.871,0,0,1-28-27.739A27.871,27.871,0,0,1-49,307Z" transform="translate(0 0)" fill="#e6101e" fill-rule="evenodd"/>
    <path id="Path_2" data-name="Path 2" d="M-44.554,313.741a25.591,25.591,0,0,1,25.7,25.47,25.591,25.591,0,0,1-25.7,25.47,25.591,25.591,0,0,1-25.705-25.47,25.591,25.591,0,0,1,25.705-25.47Z" transform="translate(-4.451 -4.472)" fill="#ffd141" fill-rule="evenodd"/>
    <path id="Path_3" data-name="Path 3" d="M-9.662,369.982a4.731,4.731,0,0,1-3.2,1.882L-29,371.851c-.805-.411-.894-.982,0-1.331h9.124a2.5,2.5,0,0,0,2.087-1c2.75-3.571,5.826-6.98,8.217-10.819a5.63,5.63,0,0,1-3.291,1.778H-24.073a3.149,3.149,0,0,0-2.718,1.32l-6.722,8.468c-5.785,6.852-9.792-8.287-1.966-5.877l-3.2-3.985a1.937,1.937,0,0,0-2.912,0c-4.822,6.113-4.911,15.537,5.242,16.437h21.694l5-6.863Zm-3.344-19.212a3.08,3.08,0,0,1-2.379.8h-9.852a3.576,3.576,0,0,0-2.839,1.245l-6.285,7.92L-32.59,363l2.16-2.665a3.517,3.517,0,0,1,2.718-1.2h6.164c3.03,0,7.053-6.558,8.543-8.368Z" transform="translate(-21.289 -29.037)" fill="#3c792f" fill-rule="evenodd"/>
    <path id="Path_4" data-name="Path 4" d="M296.123,380.25h3.322a1.4,1.4,0,0,0,.363,1.549c1.224.97,2.618.157,3.266-.913.313-2.017-3.708-1.405-5.053-2.738a1.729,1.729,0,0,1-.558-1.273,4.713,4.713,0,0,1,1.061-3.015,4.364,4.364,0,0,1,1.759-1.106,10.017,10.017,0,0,1,3.211-.5,9.635,9.635,0,0,1,1.982.138c2.058.313,2.066,1.764,2.066,3.292h-3.21l.14-.36c0-1.019-.846-1.051-1.563-1.051a1.7,1.7,0,0,0-1.9,1.494.907.907,0,0,0,.642.913c2.943.486,6.045,1,4.8,4.288a5.374,5.374,0,0,1-2.959,2.877,9.943,9.943,0,0,1-3.043.415,8.677,8.677,0,0,1-2.485-.277,4.234,4.234,0,0,1-1.647-1.19,3.077,3.077,0,0,1-.419-2.545Zm-12.06,5.477c2.259,0,2.093-.04,3.322-1.951l-1.7-11.188h4.188l.419,7.026,3.824-7.026h3.629l-7.007,11.949c-1.857,2.99-3.567,3.458-7.314,3.458h0l.642-2.268Zm-49.133-7.081c-1.409,0-3.948.561-4.467,2.1-.263.7.273,1.131.837,1.411,2.458,0,2.887-1.674,3.629-3.513Zm-6.253-2.462c0-2.592,3.435-3.591,5.611-3.873,2.167,0,3.731-.115,4.746,1.77a3.714,3.714,0,0,1,.056,1.411c-.407,2.016-2.451,6.5-1.7,8.353v.055h-3.546v-.968c-7.3,5.168-9.917-4.346-2.4-5.339.656-.108,4.271-.427,4.271-1.826,0-2.228-2.7-1.387-3.49-.138-.042.129-.182.452-.223.553Zm51.422,2.462c-1.409,0-3.948.561-4.467,2.1-.264.7.273,1.131.837,1.411,2.458,0,2.887-1.674,3.629-3.513Zm-6.253-2.462c0-2.592,3.435-3.591,5.611-3.873,2.167,0,3.731-.115,4.746,1.77a3.716,3.716,0,0,1,.056,1.411c-.407,2.016-2.451,6.5-1.7,8.353v.055H279.01v-.968c-7.3,5.168-9.918-4.346-2.4-5.339.656-.108,4.271-.427,4.271-1.826,0-2.228-2.7-1.387-3.49-.138-.042.129-.182.452-.223.553Zm-9.77.775-3.629,6.943h-3.629l-.335-11.313h3.685l-.14,6.97,3.545-6.97h3.322l-.279,6.97,3.685-6.97h3.769L267.453,383.9h-3.685l.307-6.943Zm-7.873-4.564-.782,2.655h-.14a4.974,4.974,0,0,0-2.429.276,5.694,5.694,0,0,0-2.764,3.956L248.8,383.9h-3.462l3.126-11.313h3.322l-.5,1.549a6.875,6.875,0,0,1,4.913-1.743Zm-13.344-1.411.7-2.655H247.1l-.754,2.655Zm3.043,1.6L242.8,383.9h-3.49l3.127-11.313Zm46-24.563-3.768,13.609h-5.388l6.226-22.267h5.472l4.466,13.5,3.769-13.5h5.3l-6.239,22.267H296.37L291.9,348.026Zm-21.719,5.67h5.332l-.363-7.994-4.969,7.994Zm9.38-14.328q.879,11.133,1.759,22.267h-5.611q-.1-2.062-.2-4.122h-7.454l-2.485,4.122h-5.667l14.182-22.267Zm-24.622,4.37h-6.449l1.2-4.37h18.229l-1.2,4.37H260.33l-5.025,17.9h-5.332l4.969-17.9Zm-22.7,10.677c0,2.533,1.317,4.22,4.166,3.7,4.055-.733,3.659-5.618-1.063-6.122-4-.426-6.018-3.711-5-7.485,1.7-3.634,4.442-5.155,8.654-5.7h.2c3.173-.571,7.694.228,8.152,4.066a4.548,4.548,0,0,1-.14,2.6h-5.025c0-1.133-.25-2.149-1.462-2.5-3.749-1.1-8.47,3.342-.533,5.311,2.029.5,4.818,1.221,5.4,3.527.783,3.887-1.589,7.622-4.776,9.407a19.049,19.049,0,0,1-10.188.717c-3.755-1.294-4.47-3.622-3.908-7.247l.021-.069.021-.069.021-.069.021-.069Zm-8.794-15.047H228.5l-4.627,16.7-1.542,5.567h-5.388l6.225-22.267h.279ZM203.6,348.081l10.357-8.713h6.532l-11.138,9.211,5.667,13.056h-6.588l-3.685-9.46-2.987,2.434-1.975,7.026h-5.311l6.226-22.267h5.332l-2.429,8.713Zm-20.551.138h10.557l-1.145,4.011H182q-.712,2.53-1.424,5.062h12.116l-1.145,4.343h-17.56l6.226-22.267h17.224l-1.2,4.37h-11.92c-.4,1.493-.86,2.987-1.261,4.481Zm-20.207-4.758c-.446,1.54-.893,3.19-1.34,4.73h4.047a3.355,3.355,0,0,0,3.463-2.351c.291-1.039.081-1.842-1.014-2.189-1.382-.439-3.661-.19-5.155-.19Zm-2.485,8.648c-.5,1.816-.976,3.642-1.479,5.459,3.028,0,7.379.932,8.486-2.794.374-1.932-1.019-2.665-2.738-2.665Zm9.3-12.742c2.758,0,5.8,1.013,5.266,4.35a8.419,8.419,0,0,1-5.071,5.912l-.014.035-.014.034-.014.035-.014.035c3.463,0,3.439,4.414,2.637,6.73-1.23,3.55-5.02,5.1-8.624,5.1l-11.461.032q3.112-11.134,6.226-22.267Zm-22.5,4.426H136.883l1.284-4.426h16.862l-1.061,4.094-14.879,13.748h11.7l-1.2,4.426h-18.23q.642-2.351,1.284-4.7l14.517-13.139Zm-25.376-4.426h0q-1.842,6.5-3.685,13c-.5,2.261-.479,6.038,2.922,5.585,2.7-.36,4.816-3.085,5.353-5.585,1.181-4.33,2.326-8.671,3.506-13h5.3c-1.618,5.829-2.532,13.882-6.365,19.058a12.053,12.053,0,0,1-9.157,3.707c-6.423,0-7.989-2.926-7.175-8.99q1.926-6.888,3.853-13.775Z" transform="translate(-124.983 -20.996)" fill="#fff" fill-rule="evenodd"/>
  </g>
</svg>
